# xmcd
#
# Track frame offsets:
#	150
#	12850
#	26740
#	37523
#	49285
#	61533
#	73375
#	85166
#	98083
#	112530
#	126249
#	136095
#	149346
#	162179
#	172939
#	185176
#	197938
#	210320
#	221531
#	237021
#
# Disc length: 3324 seconds
#
# Revision: 2
# Processed by: cddbd v1.5.2PL0 Copyright (c) Steve Scherf et al.
# Submitted via: EZCDAudioConverter 1.0.8.1
#
DISCID=0b0cfa14
DTITLE=Various Artist - 100 titres Country Cd1
DYEAR=1900
DGENRE=Country
TTITLE0=Lynn Anderson - Top of the world
TTITLE1=Moe Bandy - I cheated me right out of you
TTITLE2=Dolly Parton - God didn't make honky
TTITLE3=Donna Fargo - The happiest girl in the whole USA
TTITLE4=Jack Greene - All the time
TTITLE5=Rock Drusky - Take these chains from my heart
TTITLE6=Jeanne Pruett - Standing on the Promises
TTITLE7=Freddy Fender - Silver wings
TTITLE8=Willie Nelson - Will you remember
TTITLE9=Lacy J Dalton - 16th Avenue
TTITLE10=Kitty Wells  - I can't stop loving you
TTITLE11=Dave Dudley  - The pool shark
TTITLE12=TG Sheppard - Devil in the bottle
TTITLE13=Patsy Clne - Stop look and listen
TTITLE14=Lynn Anderson - Stand by your man
TTITLE15=Donna Fargo - Don't be angry
TTITLE16=Johnny Paycheck  - Take this job and shove it
TTITLE17=Ferlin Husky - San Antone Rose
TTITLE18=Exile  - Crazy for your love
TTITLE19=Dolly Parton - Two little orphans
EXTD=
EXTT0=
EXTT1=
EXTT2=
EXTT3=
EXTT4=
EXTT5=
EXTT6=
EXTT7=
EXTT8=
EXTT9=
EXTT10=
EXTT11=
EXTT12=
EXTT13=
EXTT14=
EXTT15=
EXTT16=
EXTT17=
EXTT18=
EXTT19=
PLAYORDER=
